<?xml version="1.0" encoding="UTF-8" standalone="no"?>
<svg width="86px" height="37px" viewBox="0 0 86 37" version="1.1" xmlns="http://www.w3.org/2000/svg" xmlns:xlink="http://www.w3.org/1999/xlink">
    <!-- Generator: Sketch 43.1 (39012) - http://www.bohemiancoding.com/sketch -->
    <title>Logo КИЕВ</title>
    <desc>Created with Sketch.</desc>
    <defs>
        <linearGradient x1="100%" y1="50%" x2="0%" y2="50%" id="linearGradient-1">
            <stop stop-color="#FE9A8B" offset="0%"></stop>
            <stop stop-color="#FD868C" offset="40.8502073%"></stop>
            <stop stop-color="#F9748F" offset="73.1505102%"></stop>
            <stop stop-color="#F78CA0" offset="100%"></stop>
        </linearGradient>
        <linearGradient x1="50%" y1="100%" x2="50%" y2="0%" id="linearGradient-2">
            <stop stop-color="#9B23EA" offset="0%"></stop>
            <stop stop-color="#5F72BD" offset="100%"></stop>
        </linearGradient>
    </defs>
    <g id="Symbols" stroke="none" stroke-width="1" fill="none" fill-rule="evenodd">
        <g id="Header" transform="translate(-374.000000, -88.000000)">
            <g id="Logo-КИЕВ" transform="translate(373.000000, 88.000000)">
                <path d="M23.561,22.5905 L19.314,22.5905 C18.8903312,22.5905 18.5338348,22.4794178 18.2445,22.25725 C17.9551652,22.0350822 17.6865012,21.7070022 17.4385,21.273 L13.145,13.957 C13.0209994,13.7399989 12.8892507,13.5591674 12.74975,13.4145 C12.6102493,13.2698326 12.4604175,13.1535838 12.30025,13.06575 C12.1400825,12.9779162 11.959251,12.9185002 11.75775,12.8875 C11.556249,12.8564998 11.3315012,12.841 11.0835,12.841 L8.65,12.841 L8.65,22.5905 L4,22.5905 L4,0.100000001 L8.65,0.100000001 L8.65,9.3845 L10.6805,9.3845 C11.083502,9.3845 11.4348318,9.31216739 11.7345,9.1675 C12.0341682,9.02283261 12.3131654,8.75416863 12.5715,8.3615 L17.113,1.3245 C17.3300011,0.962831526 17.5934984,0.668334471 17.9035,0.441000001 C18.2135015,0.213665531 18.5854978,0.100000001 19.0195,0.100000001 L23.003,0.100000001 L17.175,9.0435 C16.9166654,9.44650202 16.6118351,9.77974868 16.2605,10.04325 C15.9091649,10.3067513 15.5216688,10.5159992 15.098,10.671 C15.7593366,10.8466675 16.3173311,11.1334147 16.772,11.53125 C17.2266689,11.9290853 17.655498,12.4844964 18.0585,13.1975 L23.561,22.5905 Z M45.5970254,0.100000001 L45.5970254,22.5905 L40.9160254,22.5905 L40.9160254,9.183 C40.9160254,8.62499721 40.9315253,8.03858641 40.9625254,7.42375 C40.9935256,6.80891359 41.055525,6.16050341 41.1485254,5.4785 C40.921191,6.08816972 40.6783601,6.65649737 40.4200254,7.1835 C40.1616908,7.71050264 39.9136933,8.17033137 39.6760254,8.563 L31.8795254,21.1645 C31.7761916,21.3401675 31.6521928,21.5106658 31.5075254,21.676 C31.3628581,21.8413342 31.2052763,21.9937493 31.0347754,22.13325 C30.8642746,22.2727507 30.6782764,22.3838329 30.4767754,22.4665 C30.2752744,22.5491671 30.0608599,22.5905 29.8335254,22.5905 L26.3305254,22.5905 L26.3305254,0.100000001 L31.0115254,0.100000001 L31.0115254,13.5075 C31.0115254,14.0655028 30.9960256,14.6519136 30.9650254,15.26675 C30.9340253,15.8815864 30.8720259,16.5299966 30.7790254,17.212 C31.0063599,16.6023303 31.2491908,16.0340026 31.5075254,15.507 C31.7658601,14.9799974 32.0138576,14.5201686 32.2515254,14.1275 L40.0480254,1.5105 C40.1513593,1.34516584 40.2753581,1.17725085 40.4200254,1.00675 C40.5646928,0.836249149 40.7222746,0.683834006 40.8927754,0.549500001 C41.0632763,0.415165996 41.2492744,0.306667081 41.4507754,0.224000001 C41.6522764,0.141332921 41.866691,0.100000001 42.0940254,0.100000001 L45.5970254,0.100000001 Z M54.4190509,3.7425 L54.4190509,9.524 L61.9210509,9.524 L61.9210509,13.0425 L54.4190509,13.0425 L54.4190509,18.948 L64.0600509,18.948 L64.0600509,22.5905 L49.7380509,22.5905 L49.7380509,0.100000001 L64.0600509,0.100000001 L64.0600509,3.7425 L54.4190509,3.7425 Z M77.5945763,19.0255 C78.33858,19.0255 78.9508239,18.9350842 79.4313263,18.75425 C79.9118287,18.5734158 80.2967415,18.3331682 80.5860763,18.0335 C80.8754111,17.7338318 81.0769091,17.3902519 81.1905763,17.00275 C81.3042436,16.6152481 81.3610763,16.2148354 81.3610763,15.8015 C81.3610763,15.3468311 81.2939103,14.9386685 81.1595763,14.577 C81.0252423,14.2153315 80.8082445,13.9079179 80.5085763,13.65475 C80.2089082,13.4015821 79.8188287,13.207834 79.3383263,13.0735 C78.8578239,12.939166 78.2662465,12.872 77.5635763,12.872 L73.6110763,12.872 L73.6110763,19.0255 L77.5945763,19.0255 Z M73.6110763,3.634 L73.6110763,9.71 L76.6645763,9.71 C77.3155796,9.71 77.8942405,9.65575054 78.4005763,9.54725 C78.9069122,9.43874946 79.3305746,9.26566786 79.6715763,9.028 C80.012578,8.79033215 80.2734921,8.47775194 80.4543263,8.09025 C80.6351606,7.70274806 80.7255763,7.23516941 80.7255763,6.6875 C80.7255763,6.12949721 80.6506604,5.65416863 80.5008263,5.2615 C80.3509922,4.86883137 80.1210779,4.55366786 79.8110763,4.316 C79.5010748,4.07833215 79.108412,3.90525054 78.6330763,3.79675 C78.1577406,3.68824946 77.5945796,3.634 76.9435763,3.634 L73.6110763,3.634 Z M75.9435763,0.100000001 C77.4522505,0.100000001 78.741321,0.242081914 79.8108263,0.526250001 C80.8803317,0.810418089 81.7534896,1.21341406 82.4303263,1.73525 C83.107163,2.25708594 83.6005748,2.88999628 83.9105763,3.634 C84.2205779,4.37800372 84.3755763,5.20982874 84.3755763,6.1295 C84.3755763,6.64616925 84.3006604,7.14216429 84.1508263,7.6175 C84.0009922,8.09283571 83.7684946,8.53974791 83.4533263,8.95825 C83.1381581,9.37675209 82.7325788,9.7564983 82.2365763,10.0975 C81.7405738,10.4385017 81.1515797,10.7278321 80.4695763,10.9655 C81.9989173,11.3271685 83.130406,11.9161626 83.8640763,12.7325 C84.5977467,13.5488374 84.9645763,14.6079935 84.9645763,15.91 C84.9645763,16.8606714 84.7811615,17.7441626 84.4143263,18.5605 C84.0474912,19.3768374 83.5127465,20.0846637 82.8100763,20.684 C82.1074061,21.2833363 81.2419981,21.750915 80.2138263,22.08675 C79.1856545,22.422585 78.005083,22.5905 76.6720763,22.5905 L67.9610763,22.5905 L67.9610763,0.100000001 L75.9435763,0.100000001 Z" id="КИЕВ" fill="url(#linearGradient-1)" fill-rule="evenodd"></path>
                <rect id="Rectangle-7-Copy-8" fill="url(#linearGradient-2)" fill-rule="evenodd" x="1" y="25" width="86" height="12" rx="1"></rect>
                <text id="ТИПОГРАФИЯ" font-family="LucidaGrande-Bold, Lucida Grande" font-size="8" font-weight="bold" letter-spacing="2.76999998" fill="#FFFFFF">
                    <tspan x="4" y="34">ТИПОГРАФИ</tspan>
                    <tspan x="81.1448436" y="34">Я</tspan>
                </text>
            </g>
        </g>
    </g>
</svg>